<svg xmlns="http://www.w3.org/2000/svg" xmlns:xlink="http://www.w3.org/1999/xlink" width="547" height="547" viewBox="0 0 547 547">
  <defs>
    <clipPath id="clip-path">
      <rect id="Rectangle_95" data-name="Rectangle 95" width="547" height="547" transform="translate(535 5959)" fill="#fff" stroke="#707070" stroke-width="1"/>
    </clipPath>
  </defs>
  <g id="cloud" transform="translate(-535 -5959)" clip-path="url(#clip-path)">
    <g id="cloud-2" data-name="cloud" transform="translate(565 6026.6)">
      <g id="Groupe_109" data-name="Groupe 109">
        <g id="Groupe_108" data-name="Groupe 108">
          <path id="Tracé_280" data-name="Tracé 280" d="M395.5,135.8A140.865,140.865,0,0,0,134.5,89a80.693,80.693,0,0,0-14.8-1.4,77.2,77.2,0,0,0-77.1,77.1,84.279,84.279,0,0,0,1.6,16A107.289,107.289,0,0,0,0,267.2a114.7,114.7,0,0,0,29.1,75.9c19.3,21.8,44.8,34.7,72,36.2h86.8a13.5,13.5,0,0,0,0-27H102.3C61.4,349.8,27,310.9,27,267.1a80.15,80.15,0,0,1,39.7-69,13.61,13.61,0,0,0,5.9-16.4,48.988,48.988,0,0,1-3-17.2,50.189,50.189,0,0,1,50.1-50.1,49.243,49.243,0,0,1,17.1,3,13.562,13.562,0,0,0,16.9-6.9A113.855,113.855,0,0,1,370,148a13.485,13.485,0,0,0,11.2,12c44.5,7.6,78.1,48.7,78.1,95.6,0,49.7-39.1,92.9-87.3,96.6H298.3a13.5,13.5,0,0,0,0,27h75.2c30.5-2.2,59-16.2,80.2-39.6a124.534,124.534,0,0,0,32.6-84C486.2,199.5,447.9,149.6,395.5,135.8Z" fill="#ffa200"/>
          <path id="Tracé_281" data-name="Tracé 281" d="M324.2,280a13.46,13.46,0,0,0,0-19.1l-71.5-71.5a13.66,13.66,0,0,0-9.5-4,13.242,13.242,0,0,0-9.5,4l-71.5,71.5a13.55,13.55,0,0,0,9.5,23.1,13.173,13.173,0,0,0,9.5-4l48.5-48.5V454.4a13.5,13.5,0,0,0,27,0V231.5L305.2,280A13.34,13.34,0,0,0,324.2,280Z" fill="#ffa200"/>
        </g>
      </g>
    </g>
  </g>
</svg>
