<svg xmlns="http://www.w3.org/2000/svg" width="500" height="500" viewBox="0 0 500 500">
  <g id="concevoir" transform="translate(19370 -11971)">
    <rect id="Rectangle_70" data-name="Rectangle 70" width="500" height="500" transform="translate(-19370 11971)" fill="none"/>
    <g id="concevoir-2" data-name="concevoir" transform="translate(101.306 50.145)">
      <path id="Tracé_179" data-name="Tracé 179" d="M174.683,285.021a7.958,7.958,0,0,1-5.172-1.908l-51.7-44.024a7.993,7.993,0,0,1,0-12.168l51.7-44.024a7.988,7.988,0,1,1,10.357,12.163L135.313,233l44.555,37.943a7.992,7.992,0,0,1-5.185,14.076Zm0,0" transform="translate(-19447.045 11982.796)" fill="#fff" stroke="#fff" stroke-width="7"/>
      <path id="Tracé_180" data-name="Tracé 180" d="M257.7,285.021a7.994,7.994,0,0,1-5.185-14.076L297.071,233,252.516,195.06A7.988,7.988,0,0,1,262.873,182.9l51.7,44.024a7.993,7.993,0,0,1,0,12.168l-51.7,44.024a7.958,7.958,0,0,1-5.172,1.908Zm0,0" transform="translate(-19427.998 11982.796)" fill="#fff" stroke="#fff" stroke-width="7"/>
      <path id="Tracé_181" data-name="Tracé 181" d="M196.956,322a8.126,8.126,0,0,1-1.659-.174,7.992,7.992,0,0,1-6.171-9.466l32.222-152.988a7.99,7.99,0,0,1,15.636,3.295L204.763,315.651A7.991,7.991,0,0,1,196.956,322Zm0,0" transform="translate(-19436.588 11978.842)" fill="#fff" stroke="#fff" stroke-width="7"/>
      <path id="Tracé_182" data-name="Tracé 182" d="M430.309,426.983H53.646A53.706,53.706,0,0,1,0,373.337V53.646A53.709,53.709,0,0,1,53.646,0H430.309a53.709,53.709,0,0,1,53.646,53.646V373.337A53.706,53.706,0,0,1,430.309,426.983ZM53.646,15.98A37.71,37.71,0,0,0,15.98,53.646V373.337A37.71,37.71,0,0,0,53.646,411H430.309a37.71,37.71,0,0,0,37.666-37.666V53.646A37.71,37.71,0,0,0,430.309,15.98Zm0,0" transform="translate(-19463.307 11957.203)" fill="#fff" stroke="#fff" stroke-width="7"/>
      <path id="Tracé_183" data-name="Tracé 183" d="M475.965,114.07H7.99a7.99,7.99,0,1,1,0-15.98H475.965a7.99,7.99,0,0,1,0,15.98Zm0,0" transform="translate(-19463.307 11971.073)" fill="#fff" stroke="#fff" stroke-width="7"/>
      <path id="Tracé_184" data-name="Tracé 184" d="M115.512,70.414a18.062,18.062,0,1,1,18.062-18.062,18.087,18.087,0,0,1-18.062,18.062Zm0-24.709a6.647,6.647,0,1,0,6.647,6.647,6.656,6.656,0,0,0-6.647-6.647Zm0,0" transform="translate(-19470.555 11969.273)" fill="#fff"/>
      <path id="Tracé_185" data-name="Tracé 185" d="M47.449,70.2A18.062,18.062,0,1,1,65.511,52.136,18.083,18.083,0,0,1,47.449,70.2Zm0-24.709A6.647,6.647,0,1,0,54.1,52.136,6.658,6.658,0,0,0,47.449,45.489Zm0,0" transform="translate(-19453.729 11969.313)" fill="#fff"/>
      <path id="Tracé_186" data-name="Tracé 186" d="M183.574,70.625a18.061,18.061,0,1,1,18.062-18.062A18.082,18.082,0,0,1,183.574,70.625Zm0-24.709a6.647,6.647,0,1,0,6.647,6.647A6.653,6.653,0,0,0,183.574,45.916Zm0,0" transform="translate(-19487.385 11969.234)" fill="#fff"/>
    </g>
  </g>
</svg>
